<?xml version="1.0" encoding="utf-8"?>
<!-- Generator: Adobe Illustrator 19.0.1, SVG Export Plug-In . SVG Version: 6.00 Build 0)  --><svg style="enable-background:new 0 0 128 128;" version="1.1" viewBox="0 0 128 128" x="0px" xml:space="preserve" xmlns="http://www.w3.org/2000/svg" xmlns:xlink="http://www.w3.org/1999/xlink" y="0px">
<g id="_x33_0">
<path d="M63.777,127.81c-5.867,0-11.127-3.654-15.213-10.568   c-3.134-5.303-5.657-12.52-7.501-21.456l-0.069-0.344c-1.957-10.524-3.022-21.716-2.987-31.453   c0.025-10.654,1.017-21.013,3.031-31.663c1.865-9.059,4.403-16.306,7.559-21.624C52.679,3.825,57.927,0.19,63.777,0.19   c5.852,0,11.102,3.635,15.179,10.512c3.125,5.265,5.644,12.423,7.49,21.279l0.071,0.344c2.014,10.665,3.006,21.023,3.029,31.667   c0.036,9.733-1.03,20.925-2.997,31.508l-0.052,0.258c-1.846,8.948-4.371,16.174-7.507,21.483   C74.904,124.156,69.644,127.81,63.777,127.81z M47.329,94.258l0.008,0.044c1.703,8.321,3.983,14.935,6.773,19.657   c1.997,3.379,5.294,7.404,9.667,7.404s7.67-4.025,9.667-7.404c2.79-4.722,5.07-11.336,6.773-19.657l0.015-0.071   c1.89-10.214,2.905-20.918,2.871-30.221c-0.023-10.201-0.969-20.134-2.892-30.36l-0.025-0.126   c-1.701-8.254-3.979-14.83-6.771-19.531c-1.991-3.356-5.277-7.355-9.638-7.355c-4.359,0-7.647,4-9.638,7.355   c-2.792,4.701-5.07,11.278-6.775,19.55c-1.934,10.237-2.888,20.207-2.913,30.465C44.417,73.34,45.439,84.078,47.329,94.258z    M77.404,64c0,7.559-6.072,13.627-13.627,13.627S50.157,71.559,50.157,64c0-7.559,6.064-13.627,13.62-13.627   S77.404,56.441,77.404,64z M101.863,103.804c-6.083,0-13.455-1.423-21.927-4.229l-0.445-0.151   C69.4,95.845,59.244,91.196,50.88,86.325c-9.2-5.347-17.669-11.385-25.889-18.461l-0.176-0.164   c-6.737-5.989-11.744-11.813-14.762-17.196c-3.91-6.969-4.43-12.969-1.502-18.041s8.696-7.538,16.681-7.538h0.002   c6.133,0,13.617,0.967,22.229,3.809l0.271-0.097c10.229,3.586,19.691,7.814,28.922,13.117c8.44,4.839,17.596,11.312,25.776,18.31   l0.315,0.267c6.693,5.947,11.691,11.743,14.72,17.121c4.979,8.835,3.589,14.907,1.544,18.451c-2.936,5.087-8.73,7.816-16.755,7.9   C102.125,103.807,101.995,103.804,101.863,103.804z M81.712,93.372l0.067,0.023c7.895,2.629,14.647,3.962,20.075,3.962   c0.113,0,0.224,0,0.334-0.002c3.92-0.042,9.053-0.888,11.242-4.68c2.183-3.786,0.348-8.652-1.577-12.067   c-2.695-4.785-7.28-10.069-13.631-15.706l-0.134-0.118c-7.842-6.694-16.587-12.915-24.639-17.529   c-8.853-5.087-17.929-9.234-27.743-12.679l-0.082-0.025c-8.01-2.659-14.861-3.998-20.312-3.91l0,0   c-3.895,0.048-8.998,0.898-11.182,4.68c-2.181,3.782-0.367,8.627,1.54,12.027c2.67,4.76,7.226,10.023,13.543,15.643l0.071,0.065   c7.887,6.78,16.012,12.568,24.834,17.695C62.17,85.44,71.966,89.92,81.712,93.372z M25.704,103.804c-0.159,0-0.315,0-0.472-0.002   c-7.985-0.099-13.753-2.831-16.679-7.903s-2.408-11.435,1.5-18.406c3.02-5.383,8.027-11.206,14.879-17.305   c8.289-7.135,16.757-13.173,25.954-18.516c8.419-4.902,18.638-9.576,28.773-13.158l0.262-0.086   c8.476-2.81,15.855-4.235,21.942-4.235c0.13,0,0.26,0,0.392,0.002l0,0c8.027,0.084,13.82,2.818,16.755,7.903   c2.045,3.542,3.436,9.62-1.542,18.457c-3.012,5.347-7.968,11.116-14.735,17.154l-0.3,0.269   c-8.182,6.999-17.338,13.519-25.782,18.358c-9.233,5.305-18.693,9.624-28.918,13.206l-0.264,0.084   C39.067,102.4,31.746,103.804,25.704,103.804z M29.257,64.966l-0.042,0.04c-6.318,5.62-10.873,10.883-13.543,15.643   c-1.905,3.4-3.721,8.245-1.54,12.027c2.181,3.782,7.285,4.632,11.18,4.68c5.477,0.076,12.293-1.247,20.314-3.91l0.13-0.042   c9.787-3.437,18.846-7.58,27.691-12.661c8.054-4.617,16.799-10.837,24.645-17.531l0.132-0.118   c6.351-5.637,10.936-10.921,13.631-15.703c1.923-3.416,3.759-8.283,1.575-12.069c-2.19-3.794-7.322-4.638-11.242-4.68   c-5.508-0.111-12.35,1.276-20.406,3.96l-0.103,0.036c-9.726,3.446-19.507,7.922-27.557,12.608   C45.294,52.375,37.16,58.171,29.257,64.966z" id="_x33_0_1_" style="fill:currentColor;"/>
</g>
<g id="Layer_1">
</g>
</svg>